ffmpeg started on 2025-05-05 at 19:43:22
Report written to "D:\Convert\FFMetrics\reports\psnr_report-6.txt"
Log level: 32
Command line:
ffmpeg -hide_banner -nostdin -i "G:\\\xc0\xed\xe8\xec\xe5\\\xce\xed\xe3\xee\xe8\xed\xe3\xe8\\!_35_\xcb\xe5\xf2\xee_2024\\JamClub\\\xdf \xef\xe0\xf0\xe8\xf0\xee\xe2\xe0\xeb \xe2\xf1\xb8 \xe2\xf0\xe5\xec\xff, \xf7\xf2\xee\xe1\xfb \xf1\xf2\xe0\xf2\xfc \xf1\xe8\xeb\xfc\xed\xe5\xe9\xf8\xe8\xec \xe0\xe2\xe0\xed\xf2\xfe\xf0\xe8\xf1\xf2\xee\xec\\JamClub_I_Parry_Everything_06_1080p_HEVC.mkv" -i "G:\\\xc0\xed\xe8\xec\xe5\\\xce\xed\xe3\xee\xe8\xed\xe3\xe8\\!_35_\xcb\xe5\xf2\xee_2024\\JamClub\\\xdf \xef\xe0\xf0\xe8\xf0\xee\xe2\xe0\xeb \xe2\xf1\xb8 \xe2\xf0\xe5\xec\xff, \xf7\xf2\xee\xe1\xfb \xf1\xf2\xe0\xf2\xfc \xf1\xe8\xeb\xfc\xed\xe5\xe9\xf8\xe8\xec \xe0\xe2\xe0\xed\xf2\xfe\xf0\xe8\xf1\xf2\xee\xec\\JamClub_I_Parry_Everything_06_1080p.mp4" -lavfi "[0:v]settb=AVTB,setpts=PTS-STARTPTS,format=pix_fmts=yuv420p10,fps=24000/1001,scale=1920:1080:flags=bicubic[main];[1:v]settb=AVTB,setpts=PTS-STARTPTS,format=pix_fmts=yuv420p,fps=24000/1001,scale=1920:1080:flags=bicubic[ref];[main][ref]psnr=eof_action=endall:stats_file='D\\:/Convert/FFMetrics/logs/psnr_logfile-6.txt'" -f null -
Input #0, matroska,webm, from 'G:\Аниме\Онгоинги\!_35_Лето_2024\JamClub\Я парировал всё время, чтобы стать сильнейшим авантюристом\JamClub_I_Parry_Everything_06_1080p_HEVC.mkv':
  Metadata:
    COMPATIBLE_BRANDS: isomiso2avc1mp41
    MAJOR_BRAND     : isom
    MINOR_VERSION   : 512
    ENCODER         : Lavf61.7.100
  Duration: 00:24:04.74, start: -0.001000, bitrate: 1304 kb/s
  Stream #0:0: Video: hevc (Main 10), yuv420p10le(tv, bt709, progressive), 1920x1080 [SAR 1:1 DAR 16:9], 23.98 fps, 23.98 tbr, 1k tbn (default)
      Metadata:
        HANDLER_NAME    : VideoHandler
        VENDOR_ID       : [0][0][0][0]
        ENCODER         : Lavc61.19.100 libx265
        BPS             : 1105395
        DURATION        : 00:24:04.609708333
        NUMBER_OF_FRAMES: 34636
        NUMBER_OF_BYTES : 199607997
        _STATISTICS_WRITING_APP: mkvpropedit v66.0.0 ('Josie') 64-bit
        _STATISTICS_WRITING_DATE_UTC: 2025-05-05 10:46:29
        _STATISTICS_TAGS: BPS DURATION NUMBER_OF_FRAMES NUMBER_OF_BYTES
  Stream #0:1(eng): Audio: aac (LC), 48000 Hz, stereo, fltp (default)
      Metadata:
        HANDLER_NAME    : SoundHandler
        VENDOR_ID       : [0][0][0][0]
        ENCODER         : Lavc61.19.100 aac
        BPS             : 195277
        DURATION        : 00:24:04.696000000
        NUMBER_OF_FRAMES: 67721
        NUMBER_OF_BYTES : 35264609
        _STATISTICS_WRITING_APP: mkvpropedit v66.0.0 ('Josie') 64-bit
        _STATISTICS_WRITING_DATE_UTC: 2025-05-05 10:46:29
        _STATISTICS_TAGS: BPS DURATION NUMBER_OF_FRAMES NUMBER_OF_BYTES
Input #1, mov,mp4,m4a,3gp,3g2,mj2, from 'G:\Аниме\Онгоинги\!_35_Лето_2024\JamClub\Я парировал всё время, чтобы стать сильнейшим авантюристом\JamClub_I_Parry_Everything_06_1080p.mp4':
  Metadata:
    major_brand     : isom
    minor_version   : 512
    compatible_brands: isomiso2avc1mp41
    encoder         : Lavf60.16.100
  Duration: 00:24:04.72, start: 0.000000, bitrate: 3692 kb/s
  Stream #1:0[0x1](und): Video: h264 (High) (avc1 / 0x31637661), yuv420p(progressive), 1920x1080 [SAR 1:1 DAR 16:9], 3494 kb/s, 23.98 fps, 23.98 tbr, 90k tbn (default)
      Metadata:
        handler_name    : VideoHandler
        vendor_id       : [0][0][0][0]
  Stream #1:1[0x2](eng): Audio: aac (LC) (mp4a / 0x6134706D), 48000 Hz, stereo, fltp, 191 kb/s (default)
      Metadata:
        handler_name    : SoundHandler
        vendor_id       : [0][0][0][0]
Stream mapping:
  Stream #0:0 (hevc) -> settb:default
  Stream #1:0 (h264) -> settb:default
  psnr:default -> Stream #0:0 (wrapped_avframe)
  Stream #0:1 -> #0:1 (aac (native) -> pcm_s16le (native))
Output #0, null, to 'pipe:':
  Metadata:
    COMPATIBLE_BRANDS: isomiso2avc1mp41
    MAJOR_BRAND     : isom
    MINOR_VERSION   : 512
    encoder         : Lavf61.7.100
  Stream #0:0: Video: wrapped_avframe, yuv420p10le(tv, bt709, progressive), 1920x1080 [SAR 1:1 DAR 16:9], q=2-31, 200 kb/s, 23.98 fps, 23.98 tbn
      Metadata:
        encoder         : Lavc61.19.100 wrapped_avframe
  Stream #0:1(eng): Audio: pcm_s16le, 48000 Hz, stereo, s16, 1536 kb/s (default)
      Metadata:
        HANDLER_NAME    : SoundHandler
        VENDOR_ID       : [0][0][0][0]
        _STATISTICS_TAGS: BPS DURATION NUMBER_OF_FRAMES NUMBER_OF_BYTES
        BPS             : 195277
        DURATION        : 00:24:04.696000000
        NUMBER_OF_FRAMES: 67721
        NUMBER_OF_BYTES : 35264609
        _STATISTICS_WRITING_APP: mkvpropedit v66.0.0 ('Josie') 64-bit
        _STATISTICS_WRITING_DATE_UTC: 2025-05-05 10:46:29
        encoder         : Lavc61.19.100 pcm_s16le
frame=  106 fps=0.0 q=-0.0 size=N/A time=00:00:04.42 bitrate=N/A speed=8.61x    frame=  265 fps=255 q=-0.0 size=N/A time=00:00:11.05 bitrate=N/A speed=10.6x    frame=  446 fps=288 q=-0.0 size=N/A time=00:00:18.60 bitrate=N/A speed=  12x    frame=  676 fps=326 q=-0.0 size=N/A time=00:00:28.19 bitrate=N/A speed=13.6x    frame=  912 fps=354 q=-0.0 size=N/A time=00:00:38.03 bitrate=N/A speed=14.8x    frame= 1120 fps=361 q=-0.0 size=N/A time=00:00:46.71 bitrate=N/A speed=15.1x    frame= 1310 fps=362 q=-0.0 size=N/A time=00:00:54.63 bitrate=N/A speed=15.1x    frame= 1467 fps=355 q=-0.0 size=N/A time=00:01:01.18 bitrate=N/A speed=14.8x    frame= 1675 fps=361 q=-0.0 size=N/A time=00:01:09.86 bitrate=N/A speed=15.1x    frame= 1878 fps=364 q=-0.0 size=N/A time=00:01:18.32 bitrate=N/A speed=15.2x    frame= 2055 fps=362 q=-0.0 size=N/A time=00:01:25.71 bitrate=N/A speed=15.1x    frame= 2186 fps=353 q=-0.0 size=N/A time=00:01:31.17 bitrate=N/A speed=14.7x    frame= 2356 fps=351 q=-0.0 size=N/A time=00:01:38.26 bitrate=N/A speed=14.6x    frame= 2538 fps=351 q=-0.0 size=N/A time=00:01:45.85 bitrate=N/A speed=14.7x    frame= 2750 fps=356 q=-0.0 size=N/A time=00:01:54.69 bitrate=N/A speed=14.8x    frame= 2969 fps=360 q=-0.0 size=N/A time=00:02:03.83 bitrate=N/A speed=  15x    frame= 3238 fps=369 q=-0.0 size=N/A time=00:02:15.05 bitrate=N/A speed=15.4x    frame= 3480 fps=375 q=-0.0 size=N/A time=00:02:25.14 bitrate=N/A speed=15.6x    frame= 3758 fps=383 q=-0.0 size=N/A time=00:02:36.73 bitrate=N/A speed=  16x    frame= 4020 fps=390 q=-0.0 size=N/A time=00:02:47.66 bitrate=N/A speed=16.3x    frame= 4267 fps=394 q=-0.0 size=N/A time=00:02:57.96 bitrate=N/A speed=16.4x    frame= 4533 fps=400 q=-0.0 size=N/A time=00:03:09.06 bitrate=N/A speed=16.7x    frame= 4799 fps=404 q=-0.0 size=N/A time=00:03:20.15 bitrate=N/A speed=16.9x    frame= 5078 fps=410 q=-0.0 size=N/A time=00:03:31.79 bitrate=N/A speed=17.1x    frame= 5324 fps=412 q=-0.0 size=N/A time=00:03:42.05 bitrate=N/A speed=17.2x    frame= 5568 fps=415 q=-0.0 size=N/A time=00:03:52.23 bitrate=N/A speed=17.3x    frame= 5823 fps=418 q=-0.0 size=N/A time=00:04:02.86 bitrate=N/A speed=17.4x    frame= 6092 fps=421 q=-0.0 size=N/A time=00:04:14.08 bitrate=N/A speed=17.6x    frame= 6360 fps=425 q=-0.0 size=N/A time=00:04:25.26 bitrate=N/A speed=17.7x    frame= 6627 fps=428 q=-0.0 size=N/A time=00:04:36.40 bitrate=N/A speed=17.8x    frame= 6889 fps=431 q=-0.0 size=N/A time=00:04:47.32 bitrate=N/A speed=  18x    frame= 7160 fps=433 q=-0.0 size=N/A time=00:04:58.63 bitrate=N/A speed=18.1x    frame= 7435 fps=437 q=-0.0 size=N/A time=00:05:10.10 bitrate=N/A speed=18.2x    frame= 7712 fps=439 q=-0.0 size=N/A time=00:05:21.65 bitrate=N/A speed=18.3x    frame= 7854 fps=434 q=-0.0 size=N/A time=00:05:27.57 bitrate=N/A speed=18.1x    frame= 8088 fps=435 q=-0.0 size=N/A time=00:05:37.33 bitrate=N/A speed=18.1x    frame= 8289 fps=434 q=-0.0 size=N/A time=00:05:45.72 bitrate=N/A speed=18.1x    frame= 8455 fps=431 q=-0.0 size=N/A time=00:05:52.64 bitrate=N/A speed=  18x    frame= 8684 fps=431 q=-0.0 size=N/A time=00:06:02.19 bitrate=N/A speed=  18x    frame= 8915 fps=432 q=-0.0 size=N/A time=00:06:11.82 bitrate=N/A speed=  18x    frame= 9164 fps=433 q=-0.0 size=N/A time=00:06:22.21 bitrate=N/A speed=18.1x    frame= 9420 fps=434 q=-0.0 size=N/A time=00:06:32.89 bitrate=N/A speed=18.1x    frame= 9681 fps=436 q=-0.0 size=N/A time=00:06:43.77 bitrate=N/A speed=18.2x    frame= 9899 fps=436 q=-0.0 size=N/A time=00:06:52.87 bitrate=N/A speed=18.2x    frame=10122 fps=436 q=-0.0 size=N/A time=00:07:02.17 bitrate=N/A speed=18.2x    frame=10345 fps=435 q=-0.0 size=N/A time=00:07:11.47 bitrate=N/A speed=18.2x    frame=10591 fps=436 q=-0.0 size=N/A time=00:07:21.73 bitrate=N/A speed=18.2x    frame=10812 fps=436 q=-0.0 size=N/A time=00:07:30.95 bitrate=N/A speed=18.2x    frame=11010 fps=435 q=-0.0 size=N/A time=00:07:39.20 bitrate=N/A speed=18.1x    frame=11222 fps=435 q=-0.0 size=N/A time=00:07:48.05 bitrate=N/A speed=18.1x    frame=11453 fps=435 q=-0.0 size=N/A time=00:07:57.68 bitrate=N/A speed=18.1x    frame=11690 fps=435 q=-0.0 size=N/A time=00:08:07.57 bitrate=N/A speed=18.2x    frame=11909 fps=435 q=-0.0 size=N/A time=00:08:16.70 bitrate=N/A speed=18.1x    frame=12181 fps=437 q=-0.0 size=N/A time=00:08:28.04 bitrate=N/A speed=18.2x    frame=12449 fps=438 q=-0.0 size=N/A time=00:08:39.22 bitrate=N/A speed=18.3x    frame=12717 fps=440 q=-0.0 size=N/A time=00:08:50.40 bitrate=N/A speed=18.3x    frame=12993 fps=441 q=-0.0 size=N/A time=00:09:01.91 bitrate=N/A speed=18.4x    frame=13263 fps=443 q=-0.0 size=N/A time=00:09:13.17 bitrate=N/A speed=18.5x    frame=13464 fps=442 q=-0.0 size=N/A time=00:09:21.56 bitrate=N/A speed=18.4x    frame=13723 fps=443 q=-0.0 size=N/A time=00:09:32.36 bitrate=N/A speed=18.5x    frame=13967 fps=443 q=-0.0 size=N/A time=00:09:42.54 bitrate=N/A speed=18.5x    frame=14211 fps=444 q=-0.0 size=N/A time=00:09:52.71 bitrate=N/A speed=18.5x    frame=14486 fps=445 q=-0.0 size=N/A time=00:10:04.18 bitrate=N/A speed=18.6x    frame=14728 fps=446 q=-0.0 size=N/A time=00:10:14.28 bitrate=N/A speed=18.6x    frame=14971 fps=446 q=-0.0 size=N/A time=00:10:24.41 bitrate=N/A speed=18.6x    frame=15245 fps=447 q=-0.0 size=N/A time=00:10:35.84 bitrate=N/A speed=18.7x    frame=15496 fps=448 q=-0.0 size=N/A time=00:10:46.31 bitrate=N/A speed=18.7x    frame=15767 fps=449 q=-0.0 size=N/A time=00:10:57.61 bitrate=N/A speed=18.7x    frame=16020 fps=450 q=-0.0 size=N/A time=00:11:08.16 bitrate=N/A speed=18.8x    frame=16263 fps=450 q=-0.0 size=N/A time=00:11:18.30 bitrate=N/A speed=18.8x    frame=16514 fps=451 q=-0.0 size=N/A time=00:11:28.77 bitrate=N/A speed=18.8x    frame=16730 fps=450 q=-0.0 size=N/A time=00:11:37.78 bitrate=N/A speed=18.8x    frame=16950 fps=450 q=-0.0 size=N/A time=00:11:46.95 bitrate=N/A speed=18.8x    frame=17159 fps=449 q=-0.0 size=N/A time=00:11:55.67 bitrate=N/A speed=18.7x    frame=17364 fps=448 q=-0.0 size=N/A time=00:12:04.22 bitrate=N/A speed=18.7x    frame=17575 fps=448 q=-0.0 size=N/A time=00:12:13.02 bitrate=N/A speed=18.7x    frame=17789 fps=448 q=-0.0 size=N/A time=00:12:21.94 bitrate=N/A speed=18.7x    frame=17977 fps=446 q=-0.0 size=N/A time=00:12:29.79 bitrate=N/A speed=18.6x    frame=18191 fps=446 q=-0.0 size=N/A time=00:12:38.71 bitrate=N/A speed=18.6x    frame=18444 fps=447 q=-0.0 size=N/A time=00:12:49.26 bitrate=N/A speed=18.6x    frame=18705 fps=447 q=-0.0 size=N/A time=00:13:00.15 bitrate=N/A speed=18.7x    frame=18957 fps=448 q=-0.0 size=N/A time=00:13:10.66 bitrate=N/A speed=18.7x    frame=19185 fps=448 q=-0.0 size=N/A time=00:13:20.17 bitrate=N/A speed=18.7x    frame=19475 fps=449 q=-0.0 size=N/A time=00:13:32.26 bitrate=N/A speed=18.7x    frame=19737 fps=450 q=-0.0 size=N/A time=00:13:43.19 bitrate=N/A speed=18.8x    frame=19965 fps=450 q=-0.0 size=N/A time=00:13:52.70 bitrate=N/A speed=18.8x    frame=20193 fps=450 q=-0.0 size=N/A time=00:14:02.21 bitrate=N/A speed=18.8x    frame=20449 fps=450 q=-0.0 size=N/A time=00:14:12.89 bitrate=N/A speed=18.8x    frame=20690 fps=450 q=-0.0 size=N/A time=00:14:22.94 bitrate=N/A speed=18.8x    frame=20966 fps=451 q=-0.0 size=N/A time=00:14:34.45 bitrate=N/A speed=18.8x    frame=21223 fps=452 q=-0.0 size=N/A time=00:14:45.17 bitrate=N/A speed=18.8x    frame=21511 fps=453 q=-0.0 size=N/A time=00:14:57.18 bitrate=N/A speed=18.9x    frame=21797 fps=454 q=-0.0 size=N/A time=00:15:09.11 bitrate=N/A speed=18.9x    frame=22062 fps=455 q=-0.0 size=N/A time=00:15:20.16 bitrate=N/A speed=  19x    frame=22321 fps=455 q=-0.0 size=N/A time=00:15:30.97 bitrate=N/A speed=  19x    frame=22582 fps=456 q=-0.0 size=N/A time=00:15:41.85 bitrate=N/A speed=  19x    frame=22866 fps=457 q=-0.0 size=N/A time=00:15:53.70 bitrate=N/A speed=  19x    frame=23138 fps=457 q=-0.0 size=N/A time=00:16:05.04 bitrate=N/A speed=19.1x    frame=23378 fps=458 q=-0.0 size=N/A time=00:16:15.05 bitrate=N/A speed=19.1x    frame=23653 fps=458 q=-0.0 size=N/A time=00:16:26.52 bitrate=N/A speed=19.1x    frame=23885 fps=458 q=-0.0 size=N/A time=00:16:36.20 bitrate=N/A speed=19.1x    frame=24148 fps=459 q=-0.0 size=N/A time=00:16:47.17 bitrate=N/A speed=19.1x    frame=24430 fps=459 q=-0.0 size=N/A time=00:16:58.93 bitrate=N/A speed=19.2x    frame=24699 fps=460 q=-0.0 size=N/A time=00:17:10.15 bitrate=N/A speed=19.2x    frame=24931 fps=460 q=-0.0 size=N/A time=00:17:19.83 bitrate=N/A speed=19.2x    frame=25205 fps=461 q=-0.0 size=N/A time=00:17:31.25 bitrate=N/A speed=19.2x    frame=25459 fps=461 q=-0.0 size=N/A time=00:17:41.85 bitrate=N/A speed=19.2x    frame=25718 fps=461 q=-0.0 size=N/A time=00:17:52.65 bitrate=N/A speed=19.2x    frame=25950 fps=461 q=-0.0 size=N/A time=00:18:02.33 bitrate=N/A speed=19.2x    frame=26209 fps=462 q=-0.0 size=N/A time=00:18:13.13 bitrate=N/A speed=19.3x    frame=26442 fps=461 q=-0.0 size=N/A time=00:18:22.85 bitrate=N/A speed=19.2x    frame=26663 fps=461 q=-0.0 size=N/A time=00:18:32.06 bitrate=N/A speed=19.2x    frame=26879 fps=461 q=-0.0 size=N/A time=00:18:41.07 bitrate=N/A speed=19.2x    frame=27150 fps=461 q=-0.0 size=N/A time=00:18:52.38 bitrate=N/A speed=19.2x    frame=27387 fps=461 q=-0.0 size=N/A time=00:19:02.26 bitrate=N/A speed=19.2x    frame=27635 fps=461 q=-0.0 size=N/A time=00:19:12.60 bitrate=N/A speed=19.2x    frame=27909 fps=462 q=-0.0 size=N/A time=00:19:24.03 bitrate=N/A speed=19.3x    frame=28156 fps=462 q=-0.0 size=N/A time=00:19:34.33 bitrate=N/A speed=19.3x    frame=28421 fps=463 q=-0.0 size=N/A time=00:19:45.39 bitrate=N/A speed=19.3x    frame=28694 fps=463 q=-0.0 size=N/A time=00:19:56.77 bitrate=N/A speed=19.3x    frame=28961 fps=464 q=-0.0 size=N/A time=00:20:07.91 bitrate=N/A speed=19.3x    frame=29249 fps=464 q=-0.0 size=N/A time=00:20:19.92 bitrate=N/A speed=19.4x    frame=29447 fps=464 q=-0.0 size=N/A time=00:20:28.18 bitrate=N/A speed=19.3x    frame=29574 fps=462 q=-0.0 size=N/A time=00:20:33.48 bitrate=N/A speed=19.3x    frame=29765 fps=461 q=-0.0 size=N/A time=00:20:41.44 bitrate=N/A speed=19.2x    frame=30046 fps=462 q=-0.0 size=N/A time=00:20:53.16 bitrate=N/A speed=19.3x    frame=30308 fps=462 q=-0.0 size=N/A time=00:21:04.09 bitrate=N/A speed=19.3x    frame=30567 fps=463 q=-0.0 size=N/A time=00:21:14.89 bitrate=N/A speed=19.3x    frame=30830 fps=463 q=-0.0 size=N/A time=00:21:25.86 bitrate=N/A speed=19.3x    frame=31095 fps=463 q=-0.0 size=N/A time=00:21:36.92 bitrate=N/A speed=19.3x    frame=31377 fps=464 q=-0.0 size=N/A time=00:21:48.68 bitrate=N/A speed=19.3x    frame=31652 fps=464 q=-0.0 size=N/A time=00:22:00.15 bitrate=N/A speed=19.4x    frame=31908 fps=465 q=-0.0 size=N/A time=00:22:10.82 bitrate=N/A speed=19.4x    frame=32110 fps=464 q=-0.0 size=N/A time=00:22:19.25 bitrate=N/A speed=19.4x    frame=32374 fps=465 q=-0.0 size=N/A time=00:22:30.26 bitrate=N/A speed=19.4x    frame=32624 fps=465 q=-0.0 size=N/A time=00:22:40.69 bitrate=N/A speed=19.4x    frame=32849 fps=464 q=-0.0 size=N/A time=00:22:50.07 bitrate=N/A speed=19.4x    frame=33004 fps=463 q=-0.0 size=N/A time=00:22:56.54 bitrate=N/A speed=19.3x    frame=33195 fps=463 q=-0.0 size=N/A time=00:23:04.50 bitrate=N/A speed=19.3x    frame=33416 fps=462 q=-0.0 size=N/A time=00:23:13.72 bitrate=N/A speed=19.3x    frame=33613 fps=462 q=-0.0 size=N/A time=00:23:21.94 bitrate=N/A speed=19.3x    frame=33790 fps=461 q=-0.0 size=N/A time=00:23:29.32 bitrate=N/A speed=19.2x    frame=33938 fps=460 q=-0.0 size=N/A time=00:23:35.49 bitrate=N/A speed=19.2x    frame=34151 fps=459 q=-0.0 size=N/A time=00:23:44.38 bitrate=N/A speed=19.2x    frame=34351 fps=459 q=-0.0 size=N/A time=00:23:52.72 bitrate=N/A speed=19.1x    frame=34546 fps=458 q=-0.0 size=N/A time=00:24:00.85 bitrate=N/A speed=19.1x    [Parsed_psnr_10 @ 0000020d837bb8c0] PSNR y:47.772119 u:50.437036 v:51.173826 average:48.565411 min:30.491631 max:inf
[out#0/null @ 0000020df7b13e80] video:14883KiB audio:270884KiB subtitle:0KiB other streams:0KiB global headers:0KiB muxing overhead: unknown
frame=34636 fps=458 q=-0.0 Lsize=N/A time=00:24:04.60 bitrate=N/A speed=19.1x    
